<?xml version="1.0" encoding="UTF-8" standalone="no"?>
<!-- Generator: Adobe Illustrator 16.0.0, SVG Export Plug-In . SVG Version: 6.00 Build 0)  -->

<svg
   xmlns:dc="http://purl.org/dc/elements/1.1/"
   xmlns:cc="http://creativecommons.org/ns#"
   xmlns:rdf="http://www.w3.org/1999/02/22-rdf-syntax-ns#"
   xmlns:svg="http://www.w3.org/2000/svg"
   xmlns="http://www.w3.org/2000/svg"
   xmlns:sodipodi="http://sodipodi.sourceforge.net/DTD/sodipodi-0.dtd"
   xmlns:inkscape="http://www.inkscape.org/namespaces/inkscape"
   version="1.1"
   id="Capa_1"
   x="0px"
   y="0px"
   width="4197.4185"
   height="811.36346"
   viewBox="0 0 4197.4183 811.36346"
   xml:space="preserve"
   inkscape:version="0.91 r13725"
   sodipodi:docname="powerbanked.svg"><metadata
     id="metadata4254"><rdf:RDF><cc:Work
         rdf:about=""><dc:format>image/svg+xml</dc:format><dc:type
           rdf:resource="http://purl.org/dc/dcmitype/StillImage" /><dc:title></dc:title></cc:Work></rdf:RDF></metadata><defs
     id="defs4252" /><sodipodi:namedview
     pagecolor="#ffffff"
     bordercolor="#666666"
     borderopacity="1"
     objecttolerance="10"
     gridtolerance="10"
     guidetolerance="10"
     inkscape:pageopacity="0"
     inkscape:pageshadow="2"
     inkscape:window-width="1920"
     inkscape:window-height="1058"
     id="namedview4250"
     showgrid="false"
     inkscape:zoom="0.16"
     inkscape:cx="1585.9198"
     inkscape:cy="1255.0489"
     inkscape:window-x="1920"
     inkscape:window-y="0"
     inkscape:window-maximized="1"
     inkscape:current-layer="g4340-1-5"
     fit-margin-top="0"
     fit-margin-left="0"
     fit-margin-right="0"
     fit-margin-bottom="0" /><g
     id="g4220"
     transform="translate(-88.274031,387.83349)" /><g
     id="g4222"
     transform="translate(-88.274031,387.83349)" /><g
     id="g4224"
     transform="translate(-88.274031,387.83349)" /><g
     id="g4226"
     transform="translate(-88.274031,387.83349)" /><g
     id="g4228"
     transform="translate(-88.274031,387.83349)" /><g
     id="g4230"
     transform="translate(-88.274031,387.83349)" /><g
     id="g4232"
     transform="translate(-88.274031,387.83349)" /><g
     id="g4234"
     transform="translate(-88.274031,387.83349)" /><g
     id="g4236"
     transform="translate(-88.274031,387.83349)" /><g
     id="g4238"
     transform="translate(-88.274031,387.83349)" /><g
     id="g4240"
     transform="translate(-88.274031,387.83349)" /><g
     id="g4242"
     transform="translate(-88.274031,387.83349)" /><g
     id="g4244"
     transform="translate(-88.274031,387.83349)" /><g
     id="g4246"
     transform="translate(-88.274031,387.83349)" /><g
     id="g4248"
     transform="translate(-88.274031,387.83349)" /><g
     id="g4216-8-4"
     transform="matrix(1.0863536,0,0,1.0651167,3559.8519,171.15569)"
     style="fill:#19b6a8;fill-opacity:1"><path
       d="m 362.296,125.055 c -2.851,-2.853 -6.092,-4.28 -9.706,-4.287 -0.77,0 -1.902,0.193 -3.432,0.572 L 236.1,149.319 284.917,17.13 c 0.951,-1.903 1.431,-3.614 1.431,-5.139 0,-3.234 -1.242,-6.04 -3.713,-8.42 C 280.161,1.188 277.115,0 273.501,0 l -93.645,0 c -3.045,0 -5.708,0.855 -7.994,2.568 -2.284,1.715 -3.809,3.905 -4.568,6.567 l -57.386,235.546 c -0.953,4.564 0.284,8.277 3.711,11.135 2.473,2.099 5.421,3.139 8.848,3.139 1.524,0 2.666,-0.089 3.427,-0.281 l 115.914,-28.838 -56.244,230.691 c -0.76,3.045 -0.333,5.899 1.287,8.562 1.619,2.669 4.047,4.476 7.281,5.427 1.903,0.377 3.239,0.568 3.999,0.568 5.52,0 9.514,-2.375 11.991,-7.136 L 364.294,137.616 c 2.095,-4.567 1.434,-8.756 -1.998,-12.561 z"
       id="path4218-0-0"
       inkscape:connector-curvature="0"
       style="fill:#19b6a8;fill-opacity:1" /></g><path
     style="fill:none;fill-rule:evenodd;stroke:#000000;stroke-width:30;stroke-linecap:round;stroke-linejoin:round;stroke-miterlimit:4;stroke-dasharray:none;stroke-opacity:1"
     d="m 3551.5532,691.22599 2.1304,-447.3894"
     id="path4256-8-2"
     inkscape:connector-curvature="0" /><path
     style="fill:none;fill-rule:evenodd;stroke:#000000;stroke-width:30;stroke-linecap:round;stroke-linejoin:round;stroke-miterlimit:4;stroke-dasharray:none;stroke-opacity:1"
     d="m 4078.8336,697.61729 2.1304,-447.3895"
     id="path4256-4-6-5"
     inkscape:connector-curvature="0" /><g
     id="g4340-1-5"
     transform="matrix(0,0.92220667,-1.604292,0,4315.4627,644.62039)"
     style="stroke-width:32.88547897;stroke-miterlimit:4;stroke-dasharray:none"><path
       inkscape:connector-curvature="0"
       id="path4256-4-8-2-8"
       d="m 166.34429,533.47753 2.1304,-447.389454"
       style="fill:none;fill-rule:evenodd;stroke:#000000;stroke-width:24.66410828;stroke-linecap:round;stroke-linejoin:round;stroke-miterlimit:4;stroke-dasharray:none;stroke-opacity:1" /><path
       inkscape:connector-curvature="0"
       id="path4256-0-6-3-8-9"
       d="m 110.84319,519.27003 2.3118,-405.39183"
       style="fill:none;fill-rule:evenodd;stroke:#000000;stroke-width:24.66410828;stroke-linecap:round;stroke-linejoin:round;stroke-miterlimit:4;stroke-dasharray:none;stroke-opacity:1" /><text
       xml:space="preserve"
       style="font-style:normal;font-weight:normal;font-size:73.99232483px;line-height:125%;font-family:sans-serif;letter-spacing:0px;word-spacing:0px;fill:#000000;fill-opacity:1;stroke:none;stroke-width:1px;stroke-linecap:butt;stroke-linejoin:miter;stroke-opacity:1"
       x="-3578.0325"
       y="-15.76038"
       id="text4463"
       sodipodi:linespacing="125%"
       transform="matrix(0,-0.75818018,1.3189477,0,0,0)"><tspan
         sodipodi:role="line"
         id="tspan4465"
         x="-3578.0325"
         y="-15.76038"
         style="font-style:normal;font-variant:normal;font-weight:normal;font-stretch:normal;font-size:452.17532349px;font-family:'Helvetica Neue';-inkscape-font-specification:'Helvetica Neue'">PowerBanked</tspan></text>
</g><path
     style="fill:none;fill-rule:evenodd;stroke:#000000;stroke-width:30;stroke-linecap:round;stroke-linejoin:round;stroke-miterlimit:4;stroke-dasharray:none;stroke-opacity:1"
     d="M 3567.7577,185.22719 3814.8137,14.999691 4070.9083,183.72079"
     id="path4290-3-4"
     inkscape:connector-curvature="0"
     sodipodi:nodetypes="ccc" /></svg>